<svg xmlns:xlink="http://www.w3.org/1999/xlink" xmlns="http://www.w3.org/2000/svg" width="604px" height="604px" id="logo" viewBox="0 0 604 604" version="1.1" class="svelte-p0osl0"><g id="myfurman"><path d="M0 0L604 0L604 604L0 604L0 0Z" id="Background" fill="#582c83" fill-rule="evenodd" stroke="none"></path><g clip-path="url(#mask_1)"><path d="M130.936 95.951C134.146 86.2043 147.925 86.2043 151.135 95.951C158.512 118.402 176.123 135.996 198.557 143.373C208.304 146.583 208.304 160.363 198.557 163.572C176.107 170.95 158.512 188.561 151.135 210.995C147.925 220.742 134.146 220.742 130.936 210.995C123.559 188.544 105.948 170.95 83.5135 163.572C73.7668 160.363 73.7668 146.583 83.5135 143.373C105.948 135.996 123.559 118.385 130.936 95.951L130.936 95.951Z" id="Shape" fill="#ffffff" fill-rule="evenodd" stroke="none"></path><path d="M392.465 126.855C388.667 115.31 372.316 115.31 368.518 126.855L350.739 180.898C341.984 207.516 321.113 228.388 294.494 237.143L240.451 254.922C228.89 258.72 228.89 275.071 240.451 278.869L294.494 296.648C321.113 305.403 341.984 326.274 350.739 352.893L368.518 406.936C372.316 418.498 388.667 418.498 392.465 406.936L410.244 352.893C418.999 326.274 439.871 305.403 466.489 296.648L520.532 278.869C532.094 275.071 532.094 258.72 520.532 254.922L466.489 237.143C439.871 228.388 418.999 207.516 410.244 180.898L392.465 126.855L392.465 126.855Z" id="Shape" fill="#ffffff" fill-rule="evenodd" stroke="none"></path><path d="M203.414 353.716C199.616 342.171 183.265 342.171 179.467 353.716L177.283 360.337C168.528 386.955 147.656 407.827 121.038 416.582L114.417 418.766C102.855 422.564 102.855 438.915 114.417 442.713L121.038 444.897C147.656 453.653 168.528 474.524 177.283 501.142L179.467 507.78C183.265 519.341 199.616 519.341 203.414 507.78L205.598 501.142C214.354 474.524 235.225 453.653 261.843 444.897L268.464 442.713C280.026 438.915 280.026 422.564 268.464 418.766L261.843 416.582C235.225 407.827 214.354 386.955 205.598 360.337L203.414 353.716L203.414 353.716Z" id="Shape" fill="#ffffff" fill-rule="evenodd" stroke="none"></path></g></g></svg>