<svg xmlns="http://www.w3.org/2000/svg" xmlns:xlink="http://www.w3.org/1999/xlink" width="600" height="200" version="1.2" viewBox="0 0 450 150"><defs><symbol id="b" overflow="visible"><path d="M169.88-58.13c0-28.71-19.03-50.86-64.7-75.77-36.33-19.72-50.86-34.94-50.86-53.97s14.53-31.84 35.99-31.84c15.57 0 30.1 6.58 42.2 19.03 10.73 11.07 15.58 20.07 21.11 40.48h8.65l-7.61-73.7h-7.26c-1.4 7.62-5.2 11.77-11.08 11.77-3.46 0-9-1.38-15.22-4.15-12.8-4.84-25.26-7.61-37.37-7.61-13.5 0-28.03 5.53-39.1 14.53-13.49 11.07-20.06 25.95-20.06 44.98 0 27.33 15.22 46.7 53.97 67.12 24.91 13.5 42.9 27.33 51.55 40.48 3.12 4.85 4.85 11.77 4.85 20.42 0 22.83-17.3 38.75-42.56 38.75-31.14 0-52.6-19.03-69.9-61.24h-7.95L24.91 4.5h7.61c.35-6.57 4.5-11.42 9.7-11.42 3.8 0 9.68 1.39 16.25 3.8A111.38 111.38 0 0 0 99.3 4.85c40.13 0 70.58-27.33 70.58-62.97zm0 0" style="stroke:none"/></symbol><symbol id="d" overflow="visible"><path d="M93.98-87.28v-3.35h-29.5v3.35c10.46.8 13.15 3.48 13.15 13.27v40.9c0 19.84-7.5 29.09-23.6 29.09-13.68 0-19.57-7.91-19.57-26.15v-44.78c0-10.05 1.87-11.8 13-12.33v-3.35H2.15v3.35c9.38.94 11 2.68 11 12.33v44.78c0 13.01 2.8 19.58 10.71 25.48C30.3 0 39.02 2.55 48.94 2.55c9.52 0 18.63-2.68 24.4-7.38 6.57-5.22 10.19-15.42 10.19-28.29v-42.77c0-7.9 1.87-10.05 10.45-11.4zm0 0" style="stroke:none"/></symbol><symbol id="e" overflow="visible"><path d="M93.98-87.28v-3.35H65.16v3.35c9.92.94 12.47 3.75 12.47 13.27v40.9l-46.8-57.52H2.56v3.35c2.68 0 4.96 2.01 11.4 9.65v63.55c0 7.65-2.02 9.52-11.8 10.73V0h30.43v-3.35C22.26-4.55 19.84-7.1 19.84-16.62v-53.9L79.77 2.4h3.76v-78.96c0-7.65 1.74-9.4 10.45-10.73zm0 0" style="stroke:none"/></symbol><symbol id="f" overflow="visible"><path d="M92.51-46.25c0-27.62-18.77-44.38-49.74-44.38H1.87v3.35c8.59.8 11.13 2.82 11.13 8.98v66.1c0 5.9-3.35 8.58-11.12 8.85V0h42.36C73.2 0 92.51-18.5 92.51-46.25zm-23.33 2c0 12.74-2.68 24.27-6.97 30.3-4.56 6.17-11 9.26-19.71 9.26-6.03 0-7.77-1.74-7.77-7.78v-68.91c0-3.08 2.68-4.7 7.9-4.7 9.66 0 16.5 4.43 21.05 13.68 3.62 7.1 5.5 16.9 5.5 28.16zm0 0" style="stroke:none"/></symbol><symbol id="g" overflow="visible"><path d="M92.38 0v-3.35C86.47-3.35 85-5.23 77.75-22L47.86-92.5h-3.75L14.35-19.04C9.25-6.44 7.64-4.56 1.2-3.35V0h27.21v-3.35c-7.9-.54-10.99-2.01-10.99-5.5 0-1.74.94-4.83 3.89-12.2l2-5.36H53.5c4.55 10.59 6.16 15.28 6.16 18.23 0 2.95-1.74 4.16-6.43 4.43l-4.3.4V0zm-40.9-31.64H25.34l12.6-32.58zm0 0" style="stroke:none"/></symbol><symbol id="h" overflow="visible"><path d="M93.72-87.28v-3.35h-29.5v3.35c8.98.67 11.26 1.74 11.26 5.63 0 2.55-1.88 7.24-5.23 12.74l-14.88 24.8-16.09-31.1c-.13-.4-.8-1.62-.8-1.62-1.88-3.35-2.41-4.82-2.41-6.3 0-2.95 2-4.02 7.5-4.02l3.36-.13v-3.35H2v3.35c4.56.27 8.04 2.81 10.73 7.37L37.27-35.4v19.71c0 9.8-1.47 11.26-12.46 12.34V0h46.52v-3.35c-11-1.08-12.34-2.42-12.34-12.34v-24.66l25.6-41.7c2.02-3.09 4.57-4.56 9.12-5.23zm0 0" style="stroke:none"/></symbol><symbol id="j" overflow="visible"><path d="M123.48 0v-3.35c-10.46-1.34-11.8-2.82-11.8-12.34v-59.26c0-9.65 2.01-11.66 11.8-12.33v-3.35H89.69L62.88-27.35 36.07-90.63H2.15v3.35c9.78.8 11.93 2.55 11.93 9.52v63.68c0 8.04-1.74 9.65-12.2 10.73V0h31.37v-3.35c-11-.8-13.54-3.35-13.54-13.27v-63.02L53.5 0h3.61l33.8-81.65v68.24c0 7.51-1.89 9.12-11.94 10.06V0zm0 0" style="stroke:none"/></symbol><symbol id="k" overflow="visible"><path d="M95.86 0v-3.35c-2.41 0-4.15-.8-5.5-2.55L63.42-44.1c7.9-2.55 11.26-4.29 15.01-7.64 3.89-3.62 6.03-8.98 6.03-15.02 0-15.42-13.27-23.86-37.8-23.86H3.48v3.35c9.93.67 11.8 2.68 11.8 12.33v59.26c0 9.8-1.33 11.13-11.8 12.34V0H48.8v-3.35C38.34-4.7 37-6.17 37-15.7v-26.27h3.62L68.38 0zM61.54-66.23c0 8.58-2.01 13.8-6.3 16.63-3.49 2.27-8.04 3.2-18.23 3.35v-34.19c0-.8.53-2.82.93-3.62.8-1.34 2.95-2.01 6.3-2.01 12.34 0 17.3 5.76 17.3 19.84zm0 0" style="stroke:none"/></symbol></defs><path d="M97.64 394.92h450v150h-450z" style="fill:#f2ecf6;stroke-width:.9" transform="translate(-97.64 -394.92)"/><use xlink:href="#b" width="100%" height="100%" x="221.72" y="571.66" style="fill:#212121;fill-opacity:1" transform="translate(46.45 -73.88) scale(.31329)"/><use xlink:href="#c" width="100%" height="100%" x="327.92" y="703.46" style="fill:#212121;fill-opacity:1" transform="translate(-97.64 -394.92)"/><use xlink:href="#d" width="100%" height="100%" x="396.02" y="434.36" style="fill:#212121;fill-opacity:1" transform="translate(46.45 -73.88) scale(.31329)"/><use xlink:href="#e" width="100%" height="100%" x="492.82" y="434.36" style="fill:#212121;fill-opacity:1" transform="translate(46.45 -73.88) scale(.31329)"/><use xlink:href="#f" width="100%" height="100%" x="589.62" y="434.36" style="fill:#212121;fill-opacity:1" transform="translate(46.45 -73.88) scale(.31329)"/><use xlink:href="#g" width="100%" height="100%" x="686.42" y="434.36" style="fill:#212121;fill-opacity:1" transform="translate(46.45 -73.88) scale(.31329)"/><use xlink:href="#h" width="100%" height="100%" x="783.22" y="434.36" style="fill:#212121;fill-opacity:1" transform="translate(46.45 -73.88) scale(.31329)"/><use xlink:href="#i" width="100%" height="100%" x="641.89" y="485.43" style="fill:#212121;fill-opacity:1" transform="translate(-97.64 -394.92)"/><use xlink:href="#d" width="100%" height="100%" x="397.52" y="571.08" style="fill:#212121;fill-opacity:1" transform="translate(46.45 -73.88) scale(.31329)"/><use xlink:href="#j" width="100%" height="100%" x="494.32" y="571.08" style="fill:#212121;fill-opacity:1" transform="translate(46.45 -73.88) scale(.31329)"/><use xlink:href="#j" width="100%" height="100%" x="620.89" y="571.08" style="fill:#212121;fill-opacity:1" transform="translate(46.45 -73.88) scale(.31329)"/><use xlink:href="#g" width="100%" height="100%" x="747.45" y="571.08" style="fill:#212121;fill-opacity:1" transform="translate(46.45 -73.88) scale(.31329)"/><use xlink:href="#k" width="100%" height="100%" x="844.25" y="571.08" style="fill:#212121;fill-opacity:1" transform="translate(46.45 -73.88) scale(.31329)"/><use xlink:href="#h" width="100%" height="100%" x="941.05" y="571.08" style="fill:#212121;fill-opacity:1" transform="translate(46.45 -73.88) scale(.31329)"/><use xlink:href="#i" width="100%" height="100%" x="721.59" y="622.15" style="fill:#212121;fill-opacity:1" transform="translate(-97.64 -394.92)"/><g fill-rule="evenodd"><path d="M99.28 22.62c-.05.08-.11.87-.14 1.76-.04 1.8-.14 2.15-.88 2.9-.2.21-.4.51-.45.66-.07.27.01 1.1.15 1.55.1.39-.24.4-2.37.22-4.54-.43-6-.53-6.08-.43-.03.06-.34.27-.68.48-.33.2-.92.58-1.28.83-1.16.8-4.74 3.21-6.53 4.4-1.82 1.23-1.97 1.43-1.26 1.62a2 2 0 0 1 .66.31c.16.11.34.21.4.21s.73.3 1.47.66c.75.37 1.49.7 1.65.74l.3.08v1.81c0 .99-.05 2.6-.1 3.6-.1 1.68-.2 3.51-.45 8.88l-.23 4.48-.33 7.04c-.13 2.68-.3 6.18-.4 7.78-.1 1.6-.22 4.06-.27 5.48-.12 2.87-.36 8.04-.63 12.71-.09 1.7-.21 4.3-.27 5.76a185.9 185.9 0 0 1-.22 4.45c-.07.99-.17 2.98-.23 4.42-.05 1.44-.15 3.31-.22 4.14-.06.83-.16 2.8-.22 4.36-.06 1.57-.18 4.06-.27 5.54a657.02 657.02 0 0 0-.46 7.96l-.06.48h.46c.43 0 .46-.02.4-.25a6.1 6.1 0 0 1 .04-1.31c.05-.6.16-2.33.22-3.86.06-1.55.17-3.66.23-4.7.1-1.64.2-3.6.52-10.21.07-1.28.08-1.37.3-1.37.12 0 .63-.1 1.12-.22 2.08-.54 2.65-.66 3.9-.9a7.09 7.09 0 0 1 1.37-.2c.07.07-.15 6.19-.22 6.43-.04.1-.24.15-.48.15-.25 0-.66.03-.94.07l-.5.06-.07 2.66a59.53 59.53 0 0 1-.24 4.09c-.1.8-.18 2.36-.18 3.45v2l.95-.07.95-.07v2.69h.75l.07-1.93.23-5.62c.1-2.04.23-6.01.3-8.84.07-2.83.17-5.18.2-5.22.04-.05 1.28-.04 2.76.02 3.67.15 8.68.31 13.03.45 2 .05 4.3.14 5.12.18l1.49.06-.04 2.49-.03 2.47.37.03c.36.04.36.04.36-.45a3232.71 3232.71 0 0 0 .73-24.97c.08-3.44.2-8.05.27-10.23a3847.52 3847.52 0 0 0 .62-21.98 1289.38 1289.38 0 0 1 .42-14.68c.03-1.15.03-1.17.37-1.46.3-.27 3.63-2.68 5.08-3.71.75-.53.73-.67-.09-.67-.36 0-1.04-.05-1.53-.11-.98-.12-4.74-.47-7.72-.73l-4.2-.4-3.74-.34a8.85 8.85 0 0 1-1.58-.23c-.14-.1-.05-.65.16-1.07.24-.42.16-1.04-.16-1.46a6.55 6.55 0 0 1-.61-1.04c-.28-.57-.32-.8-.34-1.7 0-.56-.04-1.31-.07-1.65-.07-.51-.12-.61-.33-.65-.12-.02-.28.04-.32.12zm.7 4.97c.38.33.48.5.48.76 0 .46-.66 1.07-1.15 1.07-.3 0-.66-.43-.72-.89-.05-.38 0-.5.32-.9.21-.24.42-.45.47-.45.05 0 .31.19.6.41zm-.38 2.12c.14.13-.07.38-.31.38-.33 0-.48-.21-.27-.35.18-.11.48-.13.58-.03zm-6.91.55c.86.08 2.3.22 3.19.28.9.05 2.3.17 3.13.27 2.75.3 5.97.6 7.1.68 1.1.06 1.71.12 6.88.66 1.44.15 3.2.3 3.9.35.67.05 1.24.12 1.24.17 0 .06-.1.17-.25.26-.22.14-.54.15-2.2.07-1.08-.06-2.8-.18-3.81-.27-1.02-.1-2.63-.22-3.58-.3a121 121 0 0 1-2.74-.22l-2.74-.22c-.95-.07-2.36-.17-3.13-.24a608.27 608.27 0 0 1-5.84-.49c-.2-.03-.96-.1-1.7-.15a6.15 6.15 0 0 1-1.4-.2 1.41 1.41 0 0 1-.18-.46c-.08-.44-.14-.43 2.13-.2zm-2.9.22.1.55c.05.22-.03.32-.48.58-.41.24-4.38 2.84-7.2 4.72-.34.21-.5.26-.82.2-.2-.04-.4-.12-.4-.18l-.03-.21a53.92 53.92 0 0 1 3.51-2.45 258.58 258.58 0 0 0 5.17-3.49c.04 0 .1.12.14.28zm3.24 1.5c.61.07 1.9.17 2.85.23l4.08.34c2.7.24 6.25.53 8.44.67l3.3.27c.99.09 2.49.2 3.34.24 1.32.07 1.5.1 1.4.24a10.5 10.5 0 0 1-1.93 1.26 602.75 602.75 0 0 1-8.46-.83 412.74 412.74 0 0 0-4.08-.4l-3.02-.28-2.96-.28c-3.15-.28-3.88-.37-4.23-.5a1.02 1.02 0 0 1-.58-.96c0-.2.06-.21.37-.17l1.48.18zm-2.62.36c.04.14.08.43.09.62 0 .34-.05.4-.63.7-.36.2-.95.54-1.32.78-.37.23-.95.58-1.28.76-.91.5-2.44 1.42-3.05 1.81-.56.36-.96.43-1.33.24-.31-.18-.27-.3.2-.55.6-.3 6.18-4 6.61-4.4.43-.37.6-.36.7.04zm2.62 1.56.55.01-.44.1c-.75.16-1.18.13-1.18-.07 0-.14.07-.17.26-.12.13.04.5.07.8.08zm-2.19.31a.68.68 0 0 1-.35.3c-.15.05-.48.24-.76.43a56.66 56.66 0 0 1-3.9 2.34c-1.2.71-1.36.8-1.36.6 0-.1.9-.68 1.99-1.3A84.63 84.63 0 0 0 89.12 35c.05 0 .17-.08.27-.17a7.63 7.63 0 0 1 1.49-.84c.04 0 .03.1-.04.21zm7.16.24c-.2.13-1.87.13-2.18 0-.14-.06.25-.1 1.06-.1.88-.01 1.23.02 1.12.1zm4.7.46c0 .09-.27.1-.85.07-1.15-.1-1.19-.2-.07-.2.6 0 .92.05.92.13zm-8.49.17a35 35 0 0 1 2.24.2c.03.04.9.1 1.9.18a37 37 0 0 1 2.54.23c.38.06 1.46.16 2.4.21.94.06 2.53.18 3.55.28 3.84.35 4.37.4 5.53.47l1.21.07-.07 2.14c-.04 1.17-.12 4.83-.19 8.12-.06 3.28-.13 6.16-.14 6.37l-.03.4-.84-.04c-.94-.03-3.57-.24-4.41-.35-.54-.07-.56-.08-.53-.4.06-.58.26-1.05.46-1.12.27-.08.3-.45.53-6.52.22-5.94.18-6.36-.76-7.28a2.16 2.16 0 0 0-1.77-.73c-1.12 0-1.88.53-2.44 1.72l-.29.62-.08 5.82c-.05 3.2-.05 5.85 0 5.89a.9.9 0 0 0 .3.11c.17.04.24.17.32.74.05.38.07.73.03.76-.03.03-.78.02-1.66-.03l-1.6-.1v-.65c0-.64.12-.85.53-1 .16-.04.27-1.73.42-6.23.17-5.28.14-6.05-.26-6.73-1.26-2.16-4.15-1.78-4.83.64-.11.4-.2 1.88-.3 5.14l-.17 5.67c-.05 1.02-.03 1.1.16 1.1.4 0 .58.26.66.97l.07.7h-.82c-.46 0-1.67-.05-2.7-.13l-1.88-.13V51c0-.65.06-2.2.11-3.45.14-2.62.45-11.19.45-12.07 0-.31.05-.58.1-.58l2.26.18zm-3.24 3.36c-.16 2.46-.33 3.14-.34 1.3 0-1.24 0-1.26-.36-1.66-.2-.23-.44-.39-.6-.39-.37 0-.9.5-1 .92-.15.65-.24 10.6-.1 10.6.23 0 .35 2.2.15 2.59-.11.19-.08.2.21.2.2 0 .47-.11.66-.27.2-.16.4-.28.46-.28.22 0 .35-.54.35-1.47v-.9l-.5.04c-.61.05-.69-.15-.1-.28.23-.04.46-.14.5-.22.05-.07.1-.72.12-1.42.01-1.09.03-.95.1.9.04 1.22.03 2.51-.02 2.96l-.13 1.04c-.03.21-.51.48-3.02 1.72-1.64.8-3.01 1.45-3.04 1.42-.02-.02 0-.45.05-.94.05-.5.15-2.4.21-4.25.07-1.84.18-4.06.23-4.92.07-.86.16-2.64.22-3.96.08-2.36.09-2.4.36-2.6.14-.13 1.17-.75 2.28-1.4a46.44 46.44 0 0 0 3.02-1.86l.33-.17.04.63c.02.36-.02 1.55-.08 2.67zm8.71-.56c.5.35.77.75.9 1.36.14.66 0 7.87-.15 8.03-.07.06-1.46-.05-3.14-.26l-.55-.07.09-3.67c.04-2 .12-3.84.17-4.07.1-.5.5-1.1.88-1.33.4-.23 1.44-.23 1.8.01zm6.81.32c.55.28 1.1 1 1.18 1.57.06.48-.13 8-.22 8.08-.04.04-2.98-.2-3.37-.27l-.26-.05v-3.5c0-2.04.05-3.78.12-4.17.15-.8.53-1.34 1.15-1.62.56-.26.99-.27 1.4-.04zm-16.65 4.97c0 4.04-.02 4.81-.16 4.81-.09 0-.19-.08-.22-.18-.1-.23-.1-9.27 0-9.36.04-.04.14-.08.23-.08.13 0 .15.88.15 4.81zm9.43 5.8c.54.06 1.04.15 1.1.22.07.07.08.32.01.7-.09.58-.1.6-.45.64-.36.04-.36.05-.36.65v.6h-2.1l-.1-.73c-.06-.69-.1-.76-.37-.86-.33-.13-.45-.43-.45-1.12v-.34l.87.08 1.85.17zm6.66.58c.89.05 1.42.14 1.48.23.09.15 0 .77-.14 1.19-.05.16-.19.26-.3.26-.2 0-.26.1-.31.55-.05.32-.1.59-.15.6-.03.03-.49.02-1.01-.02l-.96-.07-.05-.78c-.06-.75-.07-.79-.36-.82-.26-.03-.3-.1-.33-.56-.04-.3-.04-.56-.02-.62.06-.1.42-.1 2.15.04zm-10.56 3.74 4.03.28 2.9.23c.69.07 2.13.17 3.22.22 1.1.07 2.04.14 2.12.17.08.02 1.32.12 2.77.22l2.66.2-.08 3.34c-.06 1.8-.14 5.19-.18 7.51-.06 3.17-.1 4.25-.21 4.29-.07.03-.86 0-1.75-.07-.88-.07-2.6-.17-3.79-.22-1.2-.06-2.88-.16-3.75-.23-.86-.05-2.59-.17-3.85-.22a741.02 741.02 0 0 1-7.6-.43l-1.18-.08.03-2c.04-2.23.31-9.96.43-12.12L91.2 53l.9.07 3.26.22zM90.3 58c-.07 2.22-.2 4.69-.28 5.48-.1.8-.18 2.3-.2 3.32v1.86l-1.02.4c-1.21.46-2.88 1.12-4.25 1.68l-1 .4.08-.87c.07-.9.21-4.45.4-10.3.13-3.72.14-3.78.8-4.04.82-.32 4.6-2.16 5-2.41l.4-.28.09.37c.04.2.03 2.18-.02 4.4zm4.41 11.58a1187.3 1187.3 0 0 0 8.33.5c1.86.08 8.54.5 9.16.58l.49.06-.07 1.18c-.03.66-.12 3.74-.2 6.85-.06 3.1-.15 5.68-.18 5.71-.08.08-2.2 0-5.56-.22l-2.9-.16c-1.15-.04-1.03.1-.98-1.14.02-.55-.02-.51 1.05-.9a4.1 4.1 0 0 0 2.01-1.68l.48-.73 1.01.07c1.69.11 1.51-.16 1.48 2.21l-.03 2.04h.68l.07-1.79.26-5.48c.24-4.94.23-5.16-.05-5.23-.45-.12-.53.14-.6 2-.05.98-.1 2.07-.14 2.44l-.07.66-.75-.08c-.4-.04-1-.07-1.33-.07-.46 0-.6-.05-.66-.2a5.57 5.57 0 0 0-1.02-1.86c-.43-.46-1.36-.96-1.78-.96-.14 0-.26-.03-.26-.09-.02-.04-.05-.6-.1-1.25l-.06-1.18h-.67v2.9l.83.31c1.23.45 2.24 1.57 2.24 2.48 0 .43-.12.36-.47-.25-.39-.68-.97-1.2-1.7-1.52-1.46-.64-2.17-.64-3.49 0-.91.45-1.6 1.13-1.8 1.82-.22.72-.18 1.86.1 2.43.3.64 1.06 1.34 1.86 1.7.54.26.8.3 1.59.3 1.5 0 2.6-.55 3.4-1.71.25-.35.32-.63.38-1.25l.08-.82 1.73.03c.95.01 1.77.06 1.81.08.11.07.11.78.01 1.28l-.06.37-.74-.08-1.52-.14-.78-.08-.33.7a4.06 4.06 0 0 1-3 2.19l-.42.08v2.36l-.68-.08c-.38-.03-.8-.07-.95-.07-.26 0-.26-.03-.3-1.15l-.03-1.14-.39-.19a4.68 4.68 0 0 1-2.36-2.58l-.25-.64h-1.01c-.56 0-1.29-.03-1.6-.07-.58-.08-.6-.09-.6-.43 0-.55.13-1.04.27-1.1.07-.02.65-.01 1.3.03s1.24.05 1.32.03c.08-.04.29-.34.47-.69a4.37 4.37 0 0 1 1.67-1.73c.19-.1.6-.25.92-.34.6-.14.6-.15.69-.68.04-.29.06-.94.05-1.43l-.03-.92h-.67l-.08 1.06a3.9 3.9 0 0 1-.17 1.12c-.04.05-.33.17-.65.27a4.33 4.33 0 0 0-2.18 1.84l-.39.67-1.12-.06a9.75 9.75 0 0 1-1.16-.1c-.06-.04-.03-1.69.05-3.74.07-1.58.07-1.64-.15-1.7-.45-.12-.5.05-.6 1.73-.08 1.42-.43 10.13-.43 10.63 0 .14.09.2.32.2.33 0 .34-.02.4-.71l.13-1.9.07-1.2h2.64l.16.5c.24.69.85 1.4 1.8 2.1.84.65.97.85.97 1.66v.55h-.53c-.3 0-2.15-.08-4.12-.17-1.96-.09-3.84-.16-4.18-.16h-.6l.08-1.21c.04-.66.12-2.87.18-4.9.15-5.36.22-7.21.29-7.63l.05-.37.86.06c.47.04 1.93.12 3.21.18zm-4.95.13c.04.16-.1 4.12-.2 5.88-.06.94-.08 1.03-.23.83a4.18 4.18 0 0 1-.37-.92c-.12-.38-.35-.89-.53-1.14-.3-.42-.32-.55-.35-1.67-.04-1.36-.11-1.46-.68-1.17-.18.1-.5.18-.68.18s-.34.06-.35.14l-.02 1.26c-.03 1.07-.04 1.14-.4 1.61-.2.28-.44.77-.53 1.1-.1.33-.25.74-.34.9-.09.17-.15.4-.15.5 0 .25-.13.53-.23.53-.05 0-.08-.11-.05-.26.25-1.5.37-4.57.18-4.86-.16-.26-.5-.1-.6.26-.07.27-.29 8-.31 10.93v.77l.37-.04.36-.03.03-1.88c.02-1.71.05-1.88.22-1.85.12.03.38.42.66.99.4.83.47 1.07.53 1.91l.06.95-.53.18-1.62.54c-.6.2-1.1.34-1.13.32-.05-.04.01-1.3.31-7.42l.25-4.96.07-1.26.35-.16c.2-.09 1.21-.5 2.25-.9 1.05-.4 2.26-.88 2.69-1.06.92-.38.91-.37.97-.2zm-2.6 2.72c0 .14-.04.3-.1.34-.08.04-.12-.1-.12-.34 0-.25.04-.38.11-.34.07.04.11.2.11.34zm.5 2.36c.48.68.79 1.49.71 1.74-.03.08-.17-.04-.31-.25-.36-.5-.8-.89-1.03-.89-.1 0-.33.06-.5.12l-.3.12.22-.32c.4-.6.6-1.1.61-1.48.03-.35.03-.36.07-.07.03.17.27.64.54 1.03zm15.23.66c.49.2 1.22.85 1.45 1.3.1.18.16.61.16 1 0 .96-.44 1.58-1.57 2.17-.59.33-1.99.3-2.83-.03-.7-.3-1.24-.72-1.17-.94.08-.22 2.24-.87 2.47-.74.47.25 1.09-.27 1.09-.92 0-.17-.07-.22-.4-.22-.3 0-.5-.1-.89-.46-.37-.33-.55-.43-.73-.38-.27.1-.29.42-.04.78.22.35.13.62-.2.62-.23.01-1 .25-1.6.5-.18.08-.2.05-.11-.51.2-1.56 1.5-2.53 3.2-2.4.4.03.93.13 1.17.23zm-15.7.92c.7.82.47 4.28-.3 4.28-.58 0-.72-2.45-.23-3.93.2-.6.27-.64.53-.35zm2.3 1.45-.03.87-.53.04c-.63.04-.72-.12-.6-1.02.1-.67.19-.75.77-.75h.42zm-4 1.09c0 .65-.18.96-.59.96-.2 0-.22-.06-.17-.6.05-.68.22-.97.54-.97.18 0 .22.1.22.6zm3.89 2.43-.04 2.16-.61.2-.8.26c-.18.06-.2-.02-.2-.66 0-.61.05-.83.43-1.54.23-.46.5-1.11.56-1.45.13-.63.38-1.11.57-1.11.08 0 .1.77.09 2.14zm-2.95-.08c.25.2.69.23.79.06a.21.21 0 0 1 .17-.11c.05 0 0 .23-.14.51-.19.44-.22.7-.19 1.6.04.89.01 1.08-.12 1.11-.15.02-.17-.17-.18-1.12-.01-1.17-.09-1.49-.52-1.97-.26-.28-.14-.32.19-.08zm7.28 3.14a1290.83 1290.83 0 0 1 15.82.85c1.39.06 2.55.15 2.6.2.05.04.04 1.99-.01 4.33l-.38 13.9-.03.51-.71-.02-4.2-.15c-5.81-.2-10.8-.34-14.21-.42l-3.25-.08.04-1.84c0-1.02.08-2.88.13-4.14.24-4.87.34-7.54.4-10.24.04-1.54.08-2.86.12-2.94.04-.17-.27-.17 3.68.04zm-4.51 1.53c-.01.81-.05 1.63-.08 1.82l-.06.34h-.83c-.46 0-.87.04-.9.08-.03.03-.11 1.11-.17 2.39a368.2 368.2 0 0 1-.28 4.73c-.18 2.53-.22 5.94-.07 5.94l.75-.17c1.15-.28 1.07-.36 1.04 1.2l-.04 1.37-.5.1c-.92.15-2.73.53-3.58.75-1.38.34-2.47.56-2.55.5a5.1 5.1 0 0 1 0-1.26l.26-5c.41-8.9.61-11.95.76-12.1a8.8 8.8 0 0 1 1.47-.6l2.97-1c.9-.3 1.67-.56 1.73-.56.07 0 .1.54.08 1.47zm-.35 6.99a63.34 63.34 0 0 1-.15 4.58c-.1.1-.04-7.81.06-8.18.04-.13.07-.4.07-.6.01-.22.03-.36.04-.34.03.02.02 2.07-.02 4.54zm-.87-.9c.06 6.32-.03 8.35-.37 8.15-.03-.03-.02-1.21.01-2.65.05-1.44.08-3.95.1-5.6 0-1.9.05-3 .11-3 .07 0 .13 1.14.15 3.1zm-.87 28.61c-.07 1.58-.1 1.74-.3 1.8-.13.04-.24.05-.26.03a65.59 65.59 0 0 0 .21-4.91c.05-2.06.11-4.12.16-4.58.1-1.28.29 5.55.19 7.66zm.73-3.1c-.04.23-.08.06-.08-.36 0-.44.04-.62.08-.43.04.2.04.56 0 .78zm0 4.3c-.04.14-.08.06-.08-.2-.02-.24.02-.35.08-.25.04.11.04.32 0 .45z"/><path d="m94.49 37.04-.18 5.13-.22 6.42c-.13 2.97-.14 2.97.4 2.97.24 0 .25-.05.31-1.99.05-1.08.13-2.86.2-3.94.05-1.07.14-3.78.17-6.01l.07-4.05h-.68zm15.64-.11c-.15.24-.55 14.8-.43 15.27.07.24.48.42.63.28.13-.14.52-13.65.44-15.06-.04-.57-.06-.62-.3-.62-.14 0-.3.07-.34.13zm-23.07 1.94c-.2.1-.41.29-.48.47-.22.59-.33 3.9-.3 8.89.02 2.76.07 5 .12 5a7.3 7.3 0 0 0 1.7-.84c.2-.2.23-.33.2-1.2-.04-.87-.07-1-.26-1.05-.27-.08-.27-.1 0-.39.22-.22.23-.41.25-3.15.06-7.79.1-7.39-.55-7.72-.26-.14-.36-.14-.68-.01zm.52 5.37c.02 4.8.01 4.96-.34 4.97-.1 0-.12-9.66 0-9.77.27-.28.3.21.34 4.8zm-.2 6.1c0 .05-.07.1-.16.1s-.2-.05-.23-.1c-.04-.08.03-.12.15-.12.14 0 .24.04.24.11zm.15.8c.04.14.07.4.07.57 0 .24-.04.31-.19.28-.22-.05-.31-.42-.21-.83.09-.34.24-.35.33-.02zm-2.21-11.76c-.03.2-.07 3.4-.07 7.1v6.76h.62l-.01-7.08c0-7.04 0-7.07-.24-7.1-.18-.03-.24.04-.3.32zm8.92 14.51c-.23.03-.24.09-.3 2.8l-.19 6-.13 4.3-.02 1.07h.32c.3 0 .34-.05.41-.45.2-1.05.42-13.54.25-13.69-.06-.04-.21-.06-.34-.03zm15.33 3.68c-.06 1.4-.1 4.5-.1 6.9v4.37l.34.03.35.04.08-4c.03-2.21.1-5.33.14-6.95l.07-2.93h-.8zm-11.61-.85c-.54.12-1.11.47-1.32.8-.35.53-.42 1.33-.5 5.47l-.07 4.2 1.5.07c.82.05 1.77.1 2.11.1l.62.03.06-1.68c.05-.93.07-2.99.06-4.59-.01-3.35-.06-3.55-.97-4.09-.6-.37-.93-.44-1.5-.31zm1.17 1.1c.4.32.4.35.48 1.37.04.57.04 2.46 0 4.2l-.08 3.14-1.34-.02h-1.34l.08-3.75c.08-3.76.14-4.48.5-4.87.44-.5 1.15-.52 1.7-.08zm5.68-.4c-.69.25-1.16.6-1.44 1.1l-.28.48-.03 4.33c-.04 3.54-.01 4.34.1 4.34.34 0 3.52.34 3.7.4.15.04.2-.03.25-.31.1-.63.29-5.43.29-7.17 0-1.9-.13-2.28-.86-2.79a2.8 2.8 0 0 0-1.16-.48c-.09-.02-.34.02-.57.1zm1.26 1.04c.67.57.68.66.49 4.3-.1 1.8-.17 3.53-.17 3.82v.55l-1.08-.08c-.6-.04-1.19-.1-1.3-.13-.2-.06-.21-.25-.17-3.87.05-4.22.06-4.25.74-4.64.57-.34 1.04-.32 1.49.05zm-21.42-.39c-.04.88-.1 3.8-.12 6.51-.04 2.7-.08 4.95-.1 5.02-.03.18.3.21.52.06.21-.16.2.1.4-8.4.07-2.45.1-4.52.06-4.61-.05-.09-.21-.17-.38-.17h-.31zm4.52-.67c-.23.06-.54.21-.7.35-.44.34-.5.9-.59 6l-.07 4.29.48-.08c.27-.05.63-.17.82-.28.31-.18.34-.25.41-1.03.26-3.03.36-9.28.15-9.34-.06-.01-.3.02-.5.09zm-.25 5.28a66.66 66.66 0 0 1-.11 4.38c-.06.05-.12.06-.16.01-.1-.1-.12-8.25-.02-8.5.04-.1.13-.19.2-.19.08 0 .11 1.31.1 4.3zm-2.2-4.18c-.54.12-.68.32-.8 1.12-.1.6-.33 9.25-.26 9.37a5.9 5.9 0 0 0 1.48-.32c.16-.09.17-.44.3-6.52.08-4.23.16-3.86-.72-3.65zm-.13 6.65c-.04 1.6-.08 2.53-.1 2.07l-.06-1.73c-.03-.5 0-2.08.03-3.53.08-2.6.08-2.6.15-1.17.03.8.03 2.76-.02 4.36zm6.27 20.82c0 .43-.06 2.17-.11 3.9l-.23 7.49c-.05 2.4-.13 4.57-.18 4.83l-.05.48h.76l.06-.81c.05-.44.13-2.4.2-4.33l.22-6.38c.07-1.56.11-3.54.11-4.4v-1.52h-.78zm15.91.35c-.11.07-.19 1.67-.33 6.41-.1 3.47-.2 7.21-.2 8.32v2.01l.3.04c.27.03.3-.01.36-.34.1-.73.63-16.3.54-16.45-.06-.1-.5-.1-.67.01zM95.43 88.6c0 .48-.04 1.86-.11 3.03l-.23 5.11a90.23 90.23 0 0 1-.17 3.42l-.07.45 1.69.16 1.67.17.06-.67c.03-.37.13-1.53.24-2.57l.27-3.3.23-2.63a174 174 0 0 0 .18-2.49l.08-1.25-.27-.05c-.28-.06-3.02-.3-3.37-.3-.18 0-.2.13-.2.91zm2.77.15c.18.07.18 1.33-.03 3.58l-.34 4.08-.23 2.93-.08.65h-.83c-.61 0-.84-.05-.88-.16-.03-.09.02-1.89.12-4 .1-2.12.22-4.61.25-5.55l.07-1.71.9.07 1.05.1zm4.24-.3c-.03.19-.1 3.14-.14 6.55l-.08 6.22 1.27-.01c.7 0 1.54-.05 1.84-.08l.56-.08.08-1.4.25-5.03.25-4.88.07-1.25-.44-.05c-.24-.05-.88-.1-1.44-.14-.55-.03-1.27-.09-1.58-.12-.56-.07-.57-.07-.64.27zm3.13 2.4c-.1 2.45-.43 9.42-.44 9.44l-1.09.06-1.06.03v-1.34c.01-2.73.2-9.52.28-9.73.08-.22.17-.23 1.23-.2l1.15.04zm-21.48-3.62c-.03.04-.11 1.5-.18 3.2-.12 3.3-.25 6.27-.46 10.48a31.3 31.3 0 0 0-.05 2.82c.05.2.14.28.33.28.36 0 .37-.1.46-3.07.03-1.35.11-3.02.17-3.7.05-.67.13-2.73.17-4.58a88.76 88.76 0 0 1 .27-5.4c0-.16-.62-.19-.71-.03zm1.52 1.59c-.26.04-.51.12-.58.15-.06.04-.1 1.41-.1 3.25 0 1.74-.05 4.17-.11 5.39l-.17 3.14-.05.92.42-.07c.22-.03.58-.11.8-.17l.42-.1.05-1.49.2-4.6c.08-1.73.16-3.9.18-4.85l.05-1.7-.32.01c-.16.01-.52.06-.79.12zm.1 6.27a63.6 63.6 0 0 1-.12 5.5c-.08.08-.11-1.76-.11-5.19 0-4.9.03-5.92.2-5.76.03.04.04 2.49.03 5.45zM92.3 106a463.98 463.98 0 0 1-.5 11.85l-.07 1.49h.77l.07-.93a556 556 0 0 0 .51-12.64c0-.15-.09-.19-.39-.19-.38 0-.4.01-.4.41zm15.91.39c-.04.07-.1 1.38-.12 2.9l-.03 2.78h.9v-2.55c-.03-2.9-.06-3.2-.41-3.25-.12-.02-.28.04-.34.12zm-24.79.11c-.05.13-.16 2.01-.4 7.02l-.34 5.87c-.12 2.03-.23 4.2-.26 4.85l-.04 1.15.34-.04.35-.03.02-1.06c.04-1.15.2-3.6.38-5.54.06-.68.16-2.66.23-4.42.05-1.75.15-3.74.21-4.41.07-.69.1-1.74.09-2.35-.03-1.07-.05-1.12-.3-1.15-.13-.03-.26.03-.28.1zm11.13 6c-.13 1.45-.45 6-.46 6.36 0 .09.14.14.38.14h.38l.07-.7.19-2.49c.16-2.61.3-3.88.4-3.96.04-.04.58-.05 1.18-.03l1.09.05v1.85c0 1.03.03 2.5.08 3.29l.06 1.43h.75v-2.21c-.02-1.21-.05-2.87-.1-3.66l-.06-1.45-1.18-.08-1.9-.12-.74-.06zm7.15 1.47v2.82l.25-.07c.13-.03.31-.07.4-.07.1 0 .13-.53.13-2.3v-2.28h2.45l.03 1.2.03 1.2h.79l.03-1.5a8.75 8.75 0 0 0-.06-1.59c-.04-.04-.98-.12-2.07-.15l-1.99-.1zm-17.61-2.4a29.8 29.8 0 0 0-.07 2.6c0 1.33-.05 3.13-.11 4-.06.85-.15 2.42-.18 3.47l-.08 1.91.44.07c.23.04.61.08.84.08h.41l.07-1.66c.03-.9.12-2.3.18-3.1.21-2.58.37-6.7.29-7.13l-.08-.41h-.82c-.64 0-.83.03-.9.17zm1.07.83c.01.04-.04.9-.1 1.96-.08 1.04-.17 3.31-.21 5.03a27.83 27.83 0 0 1-.17 3.25c-.22.23-.05-9.4.2-10.16.05-.18.26-.22.28-.08z"/></g></svg>